G04 ( created by brdgerber.py ( brdgerber.py v0.1 2014-03-12 ) ) date 2015-07-07 22:24:22 EDT*
G04 Gerber Fmt 3.4, Leading zero omitted, Abs format*
%MOIN*%
%FSLAX34Y34*%
G01*
G70*
G90*
G04 APERTURE LIST*
%ADD17C,0.0026*%
%ADD19R,0.0250X0.0450*%
%ADD12C,0.0052*%
%ADD11R,0.1259X0.1259*%
%ADD21R,0.0236X0.0551*%
%ADD22C,0.0060*%
%ADD25C,0.0472*%
%ADD10R,0.1535X0.1535*%
%ADD13C,0.0050*%
%ADD14R,0.0450X0.0250*%
%ADD20C,0.0200*%
%ADD16R,0.0314X0.0314*%
%ADD24C,0.0100*%
%ADD15C,0.0045*%
%ADD23C,0.0080*%
%ADD18C,0.0040*%
G04 APERTURE END LIST*
G54D17*
D10*
X06550Y11900D03*
D11*
X03322Y11900D03*
D11*
X09778Y11900D03*
D25*
X05250Y12100D03*
D24*
G01X05250Y12100D02*
G01X05550Y11800D01*
D24*
G01X05550Y11800D02*
G01X05550Y11050D01*
D24*
G01X05620Y09290D02*
G01X05890Y09020D01*
D24*
G01X05470Y09540D02*
G01X05620Y09390D01*
D23*
G01X04960Y09890D02*
G01X04600Y09890D01*
D23*
G01X05030Y09820D02*
G01X04960Y09890D01*
D23*
G01X04060Y10970D02*
G01X04130Y10900D01*
D23*
G01X05630Y08600D02*
G01X05900Y08330D01*
D24*
G01X05550Y11050D02*
G01X05550Y09850D01*
D23*
G01X05750Y08840D02*
G01X05750Y08890D01*
D23*
G01X05750Y08890D02*
G01X05460Y09180D01*
D23*
G01X05460Y09180D02*
G01X05460Y09320D01*
D24*
G01X05890Y08950D02*
G01X05910Y08950D01*
D25*
X07450Y13200D03*
D24*
G01X07450Y13200D02*
G01X07450Y12850D01*
D24*
G01X07450Y12850D02*
G01X07500Y12800D01*
D24*
G01X07500Y12800D02*
G01X07500Y11050D01*
D24*
G01X07500Y11050D02*
G01X07300Y10850D01*
D24*
G01X07300Y10850D02*
G01X06300Y10850D01*
D24*
G01X06300Y10850D02*
G01X06100Y10650D01*
D24*
G01X06100Y10650D02*
G01X06100Y10150D01*
D24*
G01X06100Y10150D02*
G01X06550Y09700D01*
D24*
G01X06550Y09700D02*
G01X06550Y09250D01*
D25*
X06550Y09250D03*
D24*
G01X05890Y09020D02*
G01X05890Y08950D01*
D23*
G01X05030Y09750D02*
G01X05030Y09820D01*
D23*
G01X03880Y12630D02*
G01X04020Y12630D01*
D23*
G01X05350Y08600D02*
G01X05630Y08600D01*
D23*
G01X04060Y12590D02*
G01X04060Y10970D01*
D23*
G01X04020Y12630D02*
G01X04060Y12590D01*
D23*
G01X04220Y10320D02*
G01X04040Y10320D01*
D23*
G01X04370Y09870D02*
G01X04370Y10170D01*
D25*
X04390Y12700D03*
D24*
G01X05450Y09550D02*
G01X05250Y09750D01*
D25*
X03560Y12910D03*
D25*
X08050Y13300D03*
D24*
G01X08050Y13300D02*
G01X08050Y12250D01*
D24*
G01X08050Y12250D02*
G01X07750Y11950D01*
D24*
G01X07750Y11950D02*
G01X07750Y10900D01*
D24*
G01X07750Y10900D02*
G01X06950Y10100D01*
D24*
G01X06950Y10100D02*
G01X06950Y09100D01*
D24*
G01X06950Y09100D02*
G01X06650Y08800D01*
D24*
G01X07750Y10400D02*
G01X07200Y09850D01*
D24*
G01X07200Y08950D02*
G01X07100Y08850D01*
D24*
G01X07200Y09850D02*
G01X07200Y08950D01*
D25*
X08600Y10550D03*
D24*
G01X08600Y10550D02*
G01X08450Y10400D01*
D24*
G01X08450Y10400D02*
G01X07750Y10400D01*
D25*
X07390Y08550D03*
D23*
G01X05960Y08630D02*
G01X05750Y08840D01*
D23*
G01X05900Y08330D02*
G01X06920Y08330D01*
D23*
G01X04540Y09700D02*
G01X04370Y09870D01*
D24*
G01X05620Y09390D02*
G01X05620Y09290D01*
D24*
G01X06800Y08500D02*
G01X05970Y08500D01*
D24*
G01X07090Y08790D02*
G01X06800Y08500D01*
D24*
G01X07090Y08830D02*
G01X07090Y08790D01*
D24*
G01X05900Y08950D02*
G01X06250Y08950D01*
D24*
G01X06250Y08950D02*
G01X06400Y08800D01*
D24*
G01X06400Y08800D02*
G01X06650Y08800D01*
D24*
G01X04600Y10430D02*
G01X04600Y09880D01*
D24*
G01X04140Y10890D02*
G01X04600Y10430D01*
D24*
G01X06000Y09470D02*
G01X05800Y09670D01*
D24*
G01X05800Y09670D02*
G01X05730Y09670D01*
D25*
X06000Y09470D03*
D24*
G01X05460Y09540D02*
G01X05470Y09540D01*
D24*
G01X05730Y09670D02*
G01X05550Y09850D01*
D23*
G01X05460Y09320D02*
G01X05030Y09750D01*
D23*
G01X05350Y09040D02*
G01X05290Y09100D01*
D23*
G01X05290Y09240D02*
G01X04830Y09700D01*
D23*
G01X05240Y12530D02*
G01X04770Y13000D01*
D23*
G01X04770Y13000D02*
G01X04770Y13260D01*
D23*
G01X05350Y08600D02*
G01X05350Y09040D01*
D23*
G01X05290Y09100D02*
G01X05290Y09240D01*
D23*
G01X04370Y10170D02*
G01X04220Y10320D01*
D23*
G01X04830Y09700D02*
G01X04540Y09700D01*
D25*
X04770Y13260D03*
D23*
G01X05960Y08500D02*
G01X05960Y08630D01*
D23*
G01X03870Y12640D02*
G01X03600Y12910D01*
D23*
G01X03600Y12910D02*
G01X03560Y12910D01*
D23*
G01X04810Y13640D02*
G01X04470Y13640D01*
D23*
G01X04470Y13640D02*
G01X04390Y13560D01*
D23*
G01X04390Y13560D02*
G01X04390Y12700D01*
D23*
G01X05250Y09750D02*
G01X05250Y11500D01*
D23*
G01X05250Y11500D02*
G01X05190Y11560D01*
D25*
X05190Y11560D03*
D25*
X02640Y12930D03*
D23*
G01X03320Y12250D02*
G01X03320Y11900D01*
D23*
G01X02640Y12930D02*
G01X03320Y12250D01*
D23*
G01X03510Y10320D02*
G01X04040Y10320D01*
D23*
G01X03510Y10320D02*
G01X03510Y10690D01*
D23*
G01X03510Y10690D02*
G01X03440Y10760D01*
D25*
X03440Y10760D03*
D23*
G01X05240Y12110D02*
G01X05240Y12530D01*
D23*
G01X06550Y11900D02*
G01X06180Y11900D01*
D23*
G01X06180Y11900D02*
G01X05170Y12910D01*
D23*
G01X05170Y12910D02*
G01X05170Y13390D01*
D23*
G01X05170Y13390D02*
G01X04920Y13640D01*
D23*
G01X04920Y13640D02*
G01X04810Y13640D01*
D23*
G01X06910Y08330D02*
G01X07170Y08330D01*
D23*
G01X07170Y08330D02*
G01X07390Y08550D01*
M02*
