G04 ( created by brdgerber.py ( brdgerber.py v0.1 2014-03-12 ) ) date 2015-07-07 22:24:24 EDT*
G04 Gerber Fmt 3.4, Leading zero omitted, Abs format*
%MOIN*%
%FSLAX34Y34*%
G01*
G70*
G90*
G04 APERTURE LIST*
%ADD17C,0.0026*%
%ADD19R,0.0250X0.0450*%
%ADD12C,0.0052*%
%ADD11R,0.1259X0.1259*%
%ADD21R,0.0236X0.0551*%
%ADD22C,0.0060*%
%ADD25C,0.0472*%
%ADD10R,0.1535X0.1535*%
%ADD13C,0.0050*%
%ADD14R,0.0450X0.0250*%
%ADD20C,0.0200*%
%ADD16R,0.0314X0.0314*%
%ADD24C,0.0100*%
%ADD15C,0.0045*%
%ADD23C,0.0080*%
%ADD18C,0.0040*%
G04 APERTURE END LIST*
G54D17*
D20*
G01X02000Y12000D02*
G01X02000Y11000D01*
D20*
G01X02000Y11000D02*
G01X03000Y11000D01*
D20*
G01X03000Y11000D02*
G01X03000Y10000D01*
D20*
G01X03000Y10000D02*
G01X04000Y10000D01*
D20*
G01X04000Y10000D02*
G01X04000Y09000D01*
D20*
G01X04000Y09000D02*
G01X05000Y09000D01*
D20*
G01X05000Y09000D02*
G01X05000Y08000D01*
D20*
G01X05000Y08000D02*
G01X06000Y08000D01*
D20*
G01X06000Y08000D02*
G01X06000Y07000D01*
D20*
G01X06000Y07000D02*
G01X07000Y07000D01*
D20*
G01X07000Y07000D02*
G01X07000Y08000D01*
D20*
G01X07000Y08000D02*
G01X08000Y08000D01*
D20*
G01X08000Y08000D02*
G01X08000Y09000D01*
D20*
G01X08000Y09000D02*
G01X09000Y09000D01*
D20*
G01X09000Y09000D02*
G01X09000Y10000D01*
D20*
G01X09000Y10000D02*
G01X10000Y10000D01*
D20*
G01X10000Y10000D02*
G01X10000Y11000D01*
D20*
G01X10000Y11000D02*
G01X11000Y11000D01*
D20*
G01X11000Y11000D02*
G01X11000Y12000D01*
D20*
G01X11000Y12000D02*
G01X11000Y13000D01*
D20*
G01X11000Y13000D02*
G01X11000Y14000D01*
D20*
G01X11000Y14000D02*
G01X10000Y14000D01*
D20*
G01X10000Y14000D02*
G01X10000Y15000D01*
D20*
G01X10000Y15000D02*
G01X09000Y15000D01*
D20*
G01X09000Y15000D02*
G01X08000Y15000D01*
D20*
G01X08000Y15000D02*
G01X08000Y14000D01*
D20*
G01X08000Y14000D02*
G01X07000Y14000D01*
D20*
G01X07000Y14000D02*
G01X07000Y13000D01*
D20*
G01X07000Y13000D02*
G01X06000Y13000D01*
D20*
G01X06000Y13000D02*
G01X06000Y14000D01*
D20*
G01X06000Y14000D02*
G01X05000Y14000D01*
D20*
G01X05000Y14000D02*
G01X05000Y15000D01*
D20*
G01X05000Y15000D02*
G01X04000Y15000D01*
D20*
G01X04000Y15000D02*
G01X03000Y15000D01*
D20*
G01X03000Y15000D02*
G01X03000Y14000D01*
D20*
G01X03000Y14000D02*
G01X02000Y14000D01*
D20*
G01X02000Y14000D02*
G01X02000Y13000D01*
D20*
G01X02000Y13000D02*
G01X02000Y12000D01*
M02*
