G04 ( created by brdgerber.py ( brdgerber.py v0.1 2014-03-12 ) ) date 2015-07-07 22:24:23 EDT*
G04 Gerber Fmt 3.4, Leading zero omitted, Abs format*
%MOIN*%
%FSLAX34Y34*%
G01*
G70*
G90*
G04 APERTURE LIST*
%ADD17C,0.0026*%
%ADD19R,0.0250X0.0450*%
%ADD12C,0.0052*%
%ADD11R,0.1259X0.1259*%
%ADD21R,0.0236X0.0551*%
%ADD22C,0.0060*%
%ADD25C,0.0472*%
%ADD10R,0.1535X0.1535*%
%ADD13C,0.0050*%
%ADD14R,0.0450X0.0250*%
%ADD20C,0.0200*%
%ADD16R,0.0314X0.0314*%
%ADD24C,0.0100*%
%ADD15C,0.0045*%
%ADD23C,0.0080*%
%ADD18C,0.0040*%
G04 APERTURE END LIST*
G54D17*
D13*
G01X05020Y10320D02*
G01X05020Y11220D01*
D13*
G01X05020Y11220D02*
G01X05520Y11220D01*
D13*
G01X05520Y11220D02*
G01X05520Y10320D01*
D13*
G01X05520Y10320D02*
G01X05020Y10320D01*
D15*
G01X05343Y10737D02*
G01X05257Y10670D01*
D15*
G01X05343Y10622D02*
G01X05163Y10622D01*
G01X05163Y10699D01*
G01X05171Y10718D01*
G01X05180Y10727D01*
G01X05197Y10737D01*
G01X05223Y10737D01*
G01X05240Y10727D01*
G01X05249Y10718D01*
G01X05257Y10699D01*
G01X05257Y10622D01*
D15*
G01X05343Y10927D02*
G01X05343Y10813D01*
D15*
G01X05343Y10870D02*
G01X05163Y10870D01*
G01X05189Y10851D01*
G01X05206Y10832D01*
G01X05214Y10813D01*
D17*
G01X06227Y12277D02*
G01X06227Y11923D01*
D17*
G01X06227Y11923D02*
G01X06384Y11923D01*
D17*
G01X06384Y12277D02*
G01X06384Y11923D01*
D17*
G01X06227Y12277D02*
G01X06384Y12277D01*
D17*
G01X05716Y12277D02*
G01X05716Y11923D01*
D17*
G01X05716Y11923D02*
G01X05873Y11923D01*
D17*
G01X05873Y12277D02*
G01X05873Y11923D01*
D17*
G01X05716Y12277D02*
G01X05873Y12277D01*
D17*
G01X06050Y12277D02*
G01X06050Y12218D01*
D17*
G01X06050Y12218D02*
G01X06168Y12218D01*
D17*
G01X06168Y12277D02*
G01X06168Y12218D01*
D17*
G01X06050Y12277D02*
G01X06168Y12277D01*
D17*
G01X06050Y11982D02*
G01X06050Y11923D01*
D17*
G01X06050Y11923D02*
G01X06168Y11923D01*
D17*
G01X06168Y11982D02*
G01X06168Y11923D01*
D17*
G01X06050Y11982D02*
G01X06168Y11982D01*
D17*
G01X06050Y12159D02*
G01X06050Y12041D01*
D17*
G01X06050Y12041D02*
G01X06168Y12041D01*
D17*
G01X06168Y12159D02*
G01X06168Y12041D01*
D17*
G01X06050Y12159D02*
G01X06168Y12159D01*
D18*
G01X06227Y12257D02*
G01X05873Y12257D01*
D18*
G01X06227Y11943D02*
G01X05873Y11943D01*
D13*
G01X05902Y12419D02*
G01X05902Y12619D01*
G01X05950Y12619D01*
G01X05979Y12610D01*
G01X05998Y12590D01*
G01X06007Y12571D01*
G01X06017Y12533D01*
G01X06017Y12505D01*
G01X06007Y12467D01*
G01X05998Y12448D01*
G01X05979Y12429D01*
G01X05950Y12419D01*
G01X05902Y12419D01*
D13*
G01X06207Y12419D02*
G01X06093Y12419D01*
D13*
G01X06150Y12419D02*
G01X06150Y12619D01*
G01X06131Y12590D01*
G01X06112Y12571D01*
G01X06093Y12562D01*
D13*
G01X05921Y11619D02*
G01X05826Y11619D01*
G01X05826Y11819D01*
D13*
G01X05988Y11724D02*
G01X06055Y11724D01*
D13*
G01X06083Y11619D02*
G01X05988Y11619D01*
G01X05988Y11819D01*
G01X06083Y11819D01*
D13*
G01X06169Y11619D02*
G01X06169Y11819D01*
G01X06217Y11819D01*
G01X06245Y11810D01*
G01X06264Y11790D01*
G01X06274Y11771D01*
G01X06283Y11733D01*
G01X06283Y11705D01*
G01X06274Y11667D01*
G01X06264Y11648D01*
G01X06245Y11629D01*
G01X06217Y11619D01*
G01X06169Y11619D01*
D17*
G01X07327Y12277D02*
G01X07327Y11923D01*
D17*
G01X07327Y11923D02*
G01X07484Y11923D01*
D17*
G01X07484Y12277D02*
G01X07484Y11923D01*
D17*
G01X07327Y12277D02*
G01X07484Y12277D01*
D17*
G01X06816Y12277D02*
G01X06816Y11923D01*
D17*
G01X06816Y11923D02*
G01X06973Y11923D01*
D17*
G01X06973Y12277D02*
G01X06973Y11923D01*
D17*
G01X06816Y12277D02*
G01X06973Y12277D01*
D17*
G01X07150Y12277D02*
G01X07150Y12218D01*
D17*
G01X07150Y12218D02*
G01X07268Y12218D01*
D17*
G01X07268Y12277D02*
G01X07268Y12218D01*
D17*
G01X07150Y12277D02*
G01X07268Y12277D01*
D17*
G01X07150Y11982D02*
G01X07150Y11923D01*
D17*
G01X07150Y11923D02*
G01X07268Y11923D01*
D17*
G01X07268Y11982D02*
G01X07268Y11923D01*
D17*
G01X07150Y11982D02*
G01X07268Y11982D01*
D17*
G01X07150Y12159D02*
G01X07150Y12041D01*
D17*
G01X07150Y12041D02*
G01X07268Y12041D01*
D17*
G01X07268Y12159D02*
G01X07268Y12041D01*
D17*
G01X07150Y12159D02*
G01X07268Y12159D01*
D18*
G01X07327Y12257D02*
G01X06973Y12257D01*
D18*
G01X07327Y11943D02*
G01X06973Y11943D01*
D13*
G01X07002Y12419D02*
G01X07002Y12619D01*
G01X07050Y12619D01*
G01X07079Y12610D01*
G01X07098Y12590D01*
G01X07107Y12571D01*
G01X07117Y12533D01*
G01X07117Y12505D01*
G01X07107Y12467D01*
G01X07098Y12448D01*
G01X07079Y12429D01*
G01X07050Y12419D01*
G01X07002Y12419D01*
D13*
G01X07193Y12600D02*
G01X07202Y12610D01*
G01X07221Y12619D01*
G01X07269Y12619D01*
G01X07288Y12610D01*
G01X07298Y12600D01*
G01X07307Y12581D01*
G01X07307Y12562D01*
G01X07298Y12533D01*
G01X07183Y12419D01*
G01X07307Y12419D01*
D13*
G01X07021Y11619D02*
G01X06926Y11619D01*
G01X06926Y11819D01*
D13*
G01X07088Y11724D02*
G01X07155Y11724D01*
D13*
G01X07183Y11619D02*
G01X07088Y11619D01*
G01X07088Y11819D01*
G01X07183Y11819D01*
D13*
G01X07269Y11619D02*
G01X07269Y11819D01*
G01X07317Y11819D01*
G01X07345Y11810D01*
G01X07364Y11790D01*
G01X07374Y11771D01*
G01X07383Y11733D01*
G01X07383Y11705D01*
G01X07374Y11667D01*
G01X07364Y11648D01*
G01X07345Y11629D01*
G01X07317Y11619D01*
G01X07269Y11619D01*
D17*
G01X08427Y12277D02*
G01X08427Y11923D01*
D17*
G01X08427Y11923D02*
G01X08584Y11923D01*
D17*
G01X08584Y12277D02*
G01X08584Y11923D01*
D17*
G01X08427Y12277D02*
G01X08584Y12277D01*
D17*
G01X07916Y12277D02*
G01X07916Y11923D01*
D17*
G01X07916Y11923D02*
G01X08073Y11923D01*
D17*
G01X08073Y12277D02*
G01X08073Y11923D01*
D17*
G01X07916Y12277D02*
G01X08073Y12277D01*
D17*
G01X08250Y12277D02*
G01X08250Y12218D01*
D17*
G01X08250Y12218D02*
G01X08368Y12218D01*
D17*
G01X08368Y12277D02*
G01X08368Y12218D01*
D17*
G01X08250Y12277D02*
G01X08368Y12277D01*
D17*
G01X08250Y11982D02*
G01X08250Y11923D01*
D17*
G01X08250Y11923D02*
G01X08368Y11923D01*
D17*
G01X08368Y11982D02*
G01X08368Y11923D01*
D17*
G01X08250Y11982D02*
G01X08368Y11982D01*
D17*
G01X08250Y12159D02*
G01X08250Y12041D01*
D17*
G01X08250Y12041D02*
G01X08368Y12041D01*
D17*
G01X08368Y12159D02*
G01X08368Y12041D01*
D17*
G01X08250Y12159D02*
G01X08368Y12159D01*
D18*
G01X08427Y12257D02*
G01X08073Y12257D01*
D18*
G01X08427Y11943D02*
G01X08073Y11943D01*
D13*
G01X08102Y12419D02*
G01X08102Y12619D01*
G01X08150Y12619D01*
G01X08179Y12610D01*
G01X08198Y12590D01*
G01X08207Y12571D01*
G01X08217Y12533D01*
G01X08217Y12505D01*
G01X08207Y12467D01*
G01X08198Y12448D01*
G01X08179Y12429D01*
G01X08150Y12419D01*
G01X08102Y12419D01*
D13*
G01X08283Y12619D02*
G01X08407Y12619D01*
G01X08340Y12543D01*
G01X08369Y12543D01*
G01X08388Y12533D01*
G01X08398Y12524D01*
G01X08407Y12505D01*
G01X08407Y12457D01*
G01X08398Y12438D01*
G01X08388Y12429D01*
G01X08369Y12419D01*
G01X08312Y12419D01*
G01X08293Y12429D01*
G01X08283Y12438D01*
D13*
G01X08121Y11619D02*
G01X08026Y11619D01*
G01X08026Y11819D01*
D13*
G01X08188Y11724D02*
G01X08255Y11724D01*
D13*
G01X08283Y11619D02*
G01X08188Y11619D01*
G01X08188Y11819D01*
G01X08283Y11819D01*
D13*
G01X08369Y11619D02*
G01X08369Y11819D01*
G01X08417Y11819D01*
G01X08445Y11810D01*
G01X08464Y11790D01*
G01X08474Y11771D01*
G01X08483Y11733D01*
G01X08483Y11705D01*
G01X08474Y11667D01*
G01X08464Y11648D01*
G01X08445Y11629D01*
G01X08417Y11619D01*
G01X08369Y11619D01*
D17*
G01X06227Y11227D02*
G01X06227Y10873D01*
D17*
G01X06227Y10873D02*
G01X06384Y10873D01*
D17*
G01X06384Y11227D02*
G01X06384Y10873D01*
D17*
G01X06227Y11227D02*
G01X06384Y11227D01*
D17*
G01X05716Y11227D02*
G01X05716Y10873D01*
D17*
G01X05716Y10873D02*
G01X05873Y10873D01*
D17*
G01X05873Y11227D02*
G01X05873Y10873D01*
D17*
G01X05716Y11227D02*
G01X05873Y11227D01*
D17*
G01X06050Y11227D02*
G01X06050Y11168D01*
D17*
G01X06050Y11168D02*
G01X06168Y11168D01*
D17*
G01X06168Y11227D02*
G01X06168Y11168D01*
D17*
G01X06050Y11227D02*
G01X06168Y11227D01*
D17*
G01X06050Y10932D02*
G01X06050Y10873D01*
D17*
G01X06050Y10873D02*
G01X06168Y10873D01*
D17*
G01X06168Y10932D02*
G01X06168Y10873D01*
D17*
G01X06050Y10932D02*
G01X06168Y10932D01*
D17*
G01X06050Y11109D02*
G01X06050Y10991D01*
D17*
G01X06050Y10991D02*
G01X06168Y10991D01*
D17*
G01X06168Y11109D02*
G01X06168Y10991D01*
D17*
G01X06050Y11109D02*
G01X06168Y11109D01*
D18*
G01X06227Y11207D02*
G01X05873Y11207D01*
D18*
G01X06227Y10893D02*
G01X05873Y10893D01*
D13*
G01X05902Y11369D02*
G01X05902Y11569D01*
G01X05950Y11569D01*
G01X05979Y11560D01*
G01X05998Y11540D01*
G01X06007Y11521D01*
G01X06017Y11483D01*
G01X06017Y11455D01*
G01X06007Y11417D01*
G01X05998Y11398D01*
G01X05979Y11379D01*
G01X05950Y11369D01*
G01X05902Y11369D01*
D13*
G01X06188Y11502D02*
G01X06188Y11369D01*
D13*
G01X06140Y11579D02*
G01X06093Y11436D01*
G01X06217Y11436D01*
D13*
G01X05921Y10569D02*
G01X05826Y10569D01*
G01X05826Y10769D01*
D13*
G01X05988Y10674D02*
G01X06055Y10674D01*
D13*
G01X06083Y10569D02*
G01X05988Y10569D01*
G01X05988Y10769D01*
G01X06083Y10769D01*
D13*
G01X06169Y10569D02*
G01X06169Y10769D01*
G01X06217Y10769D01*
G01X06245Y10760D01*
G01X06264Y10740D01*
G01X06274Y10721D01*
G01X06283Y10683D01*
G01X06283Y10655D01*
G01X06274Y10617D01*
G01X06264Y10598D01*
G01X06245Y10579D01*
G01X06217Y10569D01*
G01X06169Y10569D01*
D17*
G01X07337Y11237D02*
G01X07337Y10883D01*
D17*
G01X07337Y10883D02*
G01X07494Y10883D01*
D17*
G01X07494Y11237D02*
G01X07494Y10883D01*
D17*
G01X07337Y11237D02*
G01X07494Y11237D01*
D17*
G01X06826Y11237D02*
G01X06826Y10883D01*
D17*
G01X06826Y10883D02*
G01X06983Y10883D01*
D17*
G01X06983Y11237D02*
G01X06983Y10883D01*
D17*
G01X06826Y11237D02*
G01X06983Y11237D01*
D17*
G01X07160Y11237D02*
G01X07160Y11178D01*
D17*
G01X07160Y11178D02*
G01X07278Y11178D01*
D17*
G01X07278Y11237D02*
G01X07278Y11178D01*
D17*
G01X07160Y11237D02*
G01X07278Y11237D01*
D17*
G01X07160Y10942D02*
G01X07160Y10883D01*
D17*
G01X07160Y10883D02*
G01X07278Y10883D01*
D17*
G01X07278Y10942D02*
G01X07278Y10883D01*
D17*
G01X07160Y10942D02*
G01X07278Y10942D01*
D17*
G01X07160Y11119D02*
G01X07160Y11001D01*
D17*
G01X07160Y11001D02*
G01X07278Y11001D01*
D17*
G01X07278Y11119D02*
G01X07278Y11001D01*
D17*
G01X07160Y11119D02*
G01X07278Y11119D01*
D18*
G01X07337Y11217D02*
G01X06983Y11217D01*
D18*
G01X07337Y10903D02*
G01X06983Y10903D01*
D13*
G01X07012Y11379D02*
G01X07012Y11579D01*
G01X07060Y11579D01*
G01X07089Y11570D01*
G01X07108Y11550D01*
G01X07117Y11531D01*
G01X07127Y11493D01*
G01X07127Y11465D01*
G01X07117Y11427D01*
G01X07108Y11408D01*
G01X07089Y11389D01*
G01X07060Y11379D01*
G01X07012Y11379D01*
D13*
G01X07308Y11579D02*
G01X07212Y11579D01*
G01X07203Y11484D01*
G01X07212Y11493D01*
G01X07231Y11503D01*
G01X07279Y11503D01*
G01X07298Y11493D01*
G01X07308Y11484D01*
G01X07317Y11465D01*
G01X07317Y11417D01*
G01X07308Y11398D01*
G01X07298Y11389D01*
G01X07279Y11379D01*
G01X07231Y11379D01*
G01X07212Y11389D01*
G01X07203Y11398D01*
D13*
G01X07031Y10579D02*
G01X06936Y10579D01*
G01X06936Y10779D01*
D13*
G01X07098Y10684D02*
G01X07165Y10684D01*
D13*
G01X07193Y10579D02*
G01X07098Y10579D01*
G01X07098Y10779D01*
G01X07193Y10779D01*
D13*
G01X07279Y10579D02*
G01X07279Y10779D01*
G01X07327Y10779D01*
G01X07355Y10770D01*
G01X07374Y10750D01*
G01X07384Y10731D01*
G01X07393Y10693D01*
G01X07393Y10665D01*
G01X07384Y10627D01*
G01X07374Y10608D01*
G01X07355Y10589D01*
G01X07327Y10579D01*
G01X07279Y10579D01*
D17*
G01X08417Y11227D02*
G01X08417Y10873D01*
D17*
G01X08417Y10873D02*
G01X08574Y10873D01*
D17*
G01X08574Y11227D02*
G01X08574Y10873D01*
D17*
G01X08417Y11227D02*
G01X08574Y11227D01*
D17*
G01X07906Y11227D02*
G01X07906Y10873D01*
D17*
G01X07906Y10873D02*
G01X08063Y10873D01*
D17*
G01X08063Y11227D02*
G01X08063Y10873D01*
D17*
G01X07906Y11227D02*
G01X08063Y11227D01*
D17*
G01X08240Y11227D02*
G01X08240Y11168D01*
D17*
G01X08240Y11168D02*
G01X08358Y11168D01*
D17*
G01X08358Y11227D02*
G01X08358Y11168D01*
D17*
G01X08240Y11227D02*
G01X08358Y11227D01*
D17*
G01X08240Y10932D02*
G01X08240Y10873D01*
D17*
G01X08240Y10873D02*
G01X08358Y10873D01*
D17*
G01X08358Y10932D02*
G01X08358Y10873D01*
D17*
G01X08240Y10932D02*
G01X08358Y10932D01*
D17*
G01X08240Y11109D02*
G01X08240Y10991D01*
D17*
G01X08240Y10991D02*
G01X08358Y10991D01*
D17*
G01X08358Y11109D02*
G01X08358Y10991D01*
D17*
G01X08240Y11109D02*
G01X08358Y11109D01*
D18*
G01X08417Y11207D02*
G01X08063Y11207D01*
D18*
G01X08417Y10893D02*
G01X08063Y10893D01*
D13*
G01X08092Y11369D02*
G01X08092Y11569D01*
G01X08140Y11569D01*
G01X08169Y11560D01*
G01X08188Y11540D01*
G01X08197Y11521D01*
G01X08207Y11483D01*
G01X08207Y11455D01*
G01X08197Y11417D01*
G01X08188Y11398D01*
G01X08169Y11379D01*
G01X08140Y11369D01*
G01X08092Y11369D01*
D13*
G01X08378Y11569D02*
G01X08340Y11569D01*
G01X08321Y11560D01*
G01X08311Y11550D01*
G01X08292Y11521D01*
G01X08283Y11483D01*
G01X08283Y11407D01*
G01X08292Y11388D01*
G01X08302Y11379D01*
G01X08321Y11369D01*
G01X08359Y11369D01*
G01X08378Y11379D01*
G01X08388Y11388D01*
G01X08397Y11407D01*
G01X08397Y11455D01*
G01X08388Y11474D01*
G01X08378Y11483D01*
G01X08359Y11493D01*
G01X08321Y11493D01*
G01X08302Y11483D01*
G01X08292Y11474D01*
G01X08283Y11455D01*
D13*
G01X08111Y10569D02*
G01X08016Y10569D01*
G01X08016Y10769D01*
D13*
G01X08178Y10674D02*
G01X08245Y10674D01*
D13*
G01X08273Y10569D02*
G01X08178Y10569D01*
G01X08178Y10769D01*
G01X08273Y10769D01*
D13*
G01X08359Y10569D02*
G01X08359Y10769D01*
G01X08407Y10769D01*
G01X08435Y10760D01*
G01X08454Y10740D01*
G01X08464Y10721D01*
G01X08473Y10683D01*
G01X08473Y10655D01*
G01X08464Y10617D01*
G01X08454Y10598D01*
G01X08435Y10579D01*
G01X08407Y10569D01*
G01X08359Y10569D01*
D13*
G01X04460Y14260D02*
G01X03560Y14260D01*
D13*
G01X03560Y14260D02*
G01X03560Y14760D01*
D13*
G01X03560Y14760D02*
G01X04460Y14760D01*
D13*
G01X04460Y14760D02*
G01X04460Y14260D01*
D15*
G01X03977Y14437D02*
G01X03910Y14523D01*
D15*
G01X03862Y14437D02*
G01X03862Y14617D01*
G01X03939Y14617D01*
G01X03958Y14609D01*
G01X03967Y14600D01*
G01X03977Y14583D01*
G01X03977Y14557D01*
G01X03967Y14540D01*
G01X03958Y14531D01*
G01X03939Y14523D01*
G01X03862Y14523D01*
D15*
G01X04053Y14600D02*
G01X04062Y14609D01*
G01X04081Y14617D01*
G01X04129Y14617D01*
G01X04148Y14609D01*
G01X04158Y14600D01*
G01X04167Y14583D01*
G01X04167Y14566D01*
G01X04158Y14540D01*
G01X04043Y14437D01*
G01X04167Y14437D01*
D17*
G01X06227Y10157D02*
G01X06227Y09803D01*
D17*
G01X06227Y09803D02*
G01X06384Y09803D01*
D17*
G01X06384Y10157D02*
G01X06384Y09803D01*
D17*
G01X06227Y10157D02*
G01X06384Y10157D01*
D17*
G01X05716Y10157D02*
G01X05716Y09803D01*
D17*
G01X05716Y09803D02*
G01X05873Y09803D01*
D17*
G01X05873Y10157D02*
G01X05873Y09803D01*
D17*
G01X05716Y10157D02*
G01X05873Y10157D01*
D17*
G01X06050Y10157D02*
G01X06050Y10098D01*
D17*
G01X06050Y10098D02*
G01X06168Y10098D01*
D17*
G01X06168Y10157D02*
G01X06168Y10098D01*
D17*
G01X06050Y10157D02*
G01X06168Y10157D01*
D17*
G01X06050Y09862D02*
G01X06050Y09803D01*
D17*
G01X06050Y09803D02*
G01X06168Y09803D01*
D17*
G01X06168Y09862D02*
G01X06168Y09803D01*
D17*
G01X06050Y09862D02*
G01X06168Y09862D01*
D17*
G01X06050Y10039D02*
G01X06050Y09921D01*
D17*
G01X06050Y09921D02*
G01X06168Y09921D01*
D17*
G01X06168Y10039D02*
G01X06168Y09921D01*
D17*
G01X06050Y10039D02*
G01X06168Y10039D01*
D18*
G01X06227Y10137D02*
G01X05873Y10137D01*
D18*
G01X06227Y09823D02*
G01X05873Y09823D01*
D13*
G01X05902Y10299D02*
G01X05902Y10499D01*
G01X05950Y10499D01*
G01X05979Y10490D01*
G01X05998Y10470D01*
G01X06007Y10451D01*
G01X06017Y10413D01*
G01X06017Y10385D01*
G01X06007Y10347D01*
G01X05998Y10328D01*
G01X05979Y10309D01*
G01X05950Y10299D01*
G01X05902Y10299D01*
D13*
G01X06083Y10499D02*
G01X06217Y10499D01*
G01X06131Y10299D01*
D13*
G01X05921Y09499D02*
G01X05826Y09499D01*
G01X05826Y09699D01*
D13*
G01X05988Y09604D02*
G01X06055Y09604D01*
D13*
G01X06083Y09499D02*
G01X05988Y09499D01*
G01X05988Y09699D01*
G01X06083Y09699D01*
D13*
G01X06169Y09499D02*
G01X06169Y09699D01*
G01X06217Y09699D01*
G01X06245Y09690D01*
G01X06264Y09670D01*
G01X06274Y09651D01*
G01X06283Y09613D01*
G01X06283Y09585D01*
G01X06274Y09547D01*
G01X06264Y09528D01*
G01X06245Y09509D01*
G01X06217Y09499D01*
G01X06169Y09499D01*
D17*
G01X07337Y10167D02*
G01X07337Y09813D01*
D17*
G01X07337Y09813D02*
G01X07494Y09813D01*
D17*
G01X07494Y10167D02*
G01X07494Y09813D01*
D17*
G01X07337Y10167D02*
G01X07494Y10167D01*
D17*
G01X06826Y10167D02*
G01X06826Y09813D01*
D17*
G01X06826Y09813D02*
G01X06983Y09813D01*
D17*
G01X06983Y10167D02*
G01X06983Y09813D01*
D17*
G01X06826Y10167D02*
G01X06983Y10167D01*
D17*
G01X07160Y10167D02*
G01X07160Y10108D01*
D17*
G01X07160Y10108D02*
G01X07278Y10108D01*
D17*
G01X07278Y10167D02*
G01X07278Y10108D01*
D17*
G01X07160Y10167D02*
G01X07278Y10167D01*
D17*
G01X07160Y09872D02*
G01X07160Y09813D01*
D17*
G01X07160Y09813D02*
G01X07278Y09813D01*
D17*
G01X07278Y09872D02*
G01X07278Y09813D01*
D17*
G01X07160Y09872D02*
G01X07278Y09872D01*
D17*
G01X07160Y10049D02*
G01X07160Y09931D01*
D17*
G01X07160Y09931D02*
G01X07278Y09931D01*
D17*
G01X07278Y10049D02*
G01X07278Y09931D01*
D17*
G01X07160Y10049D02*
G01X07278Y10049D01*
D18*
G01X07337Y10147D02*
G01X06983Y10147D01*
D18*
G01X07337Y09833D02*
G01X06983Y09833D01*
D13*
G01X07012Y10309D02*
G01X07012Y10509D01*
G01X07060Y10509D01*
G01X07089Y10500D01*
G01X07108Y10480D01*
G01X07117Y10461D01*
G01X07127Y10423D01*
G01X07127Y10395D01*
G01X07117Y10357D01*
G01X07108Y10338D01*
G01X07089Y10319D01*
G01X07060Y10309D01*
G01X07012Y10309D01*
D13*
G01X07241Y10423D02*
G01X07222Y10433D01*
G01X07212Y10442D01*
G01X07203Y10461D01*
G01X07203Y10471D01*
G01X07212Y10490D01*
G01X07222Y10500D01*
G01X07241Y10509D01*
G01X07279Y10509D01*
G01X07298Y10500D01*
G01X07308Y10490D01*
G01X07317Y10471D01*
G01X07317Y10461D01*
G01X07308Y10442D01*
G01X07298Y10433D01*
G01X07279Y10423D01*
G01X07241Y10423D01*
G01X07222Y10414D01*
G01X07212Y10404D01*
G01X07203Y10385D01*
G01X07203Y10347D01*
G01X07212Y10328D01*
G01X07222Y10319D01*
G01X07241Y10309D01*
G01X07279Y10309D01*
G01X07298Y10319D01*
G01X07308Y10328D01*
G01X07317Y10347D01*
G01X07317Y10385D01*
G01X07308Y10404D01*
G01X07298Y10414D01*
G01X07279Y10423D01*
D13*
G01X07031Y09509D02*
G01X06936Y09509D01*
G01X06936Y09709D01*
D13*
G01X07098Y09614D02*
G01X07165Y09614D01*
D13*
G01X07193Y09509D02*
G01X07098Y09509D01*
G01X07098Y09709D01*
G01X07193Y09709D01*
D13*
G01X07279Y09509D02*
G01X07279Y09709D01*
G01X07327Y09709D01*
G01X07355Y09700D01*
G01X07374Y09680D01*
G01X07384Y09661D01*
G01X07393Y09623D01*
G01X07393Y09595D01*
G01X07384Y09557D01*
G01X07374Y09538D01*
G01X07355Y09519D01*
G01X07327Y09509D01*
G01X07279Y09509D01*
D17*
G01X08417Y10157D02*
G01X08417Y09803D01*
D17*
G01X08417Y09803D02*
G01X08574Y09803D01*
D17*
G01X08574Y10157D02*
G01X08574Y09803D01*
D17*
G01X08417Y10157D02*
G01X08574Y10157D01*
D17*
G01X07906Y10157D02*
G01X07906Y09803D01*
D17*
G01X07906Y09803D02*
G01X08063Y09803D01*
D17*
G01X08063Y10157D02*
G01X08063Y09803D01*
D17*
G01X07906Y10157D02*
G01X08063Y10157D01*
D17*
G01X08240Y10157D02*
G01X08240Y10098D01*
D17*
G01X08240Y10098D02*
G01X08358Y10098D01*
D17*
G01X08358Y10157D02*
G01X08358Y10098D01*
D17*
G01X08240Y10157D02*
G01X08358Y10157D01*
D17*
G01X08240Y09862D02*
G01X08240Y09803D01*
D17*
G01X08240Y09803D02*
G01X08358Y09803D01*
D17*
G01X08358Y09862D02*
G01X08358Y09803D01*
D17*
G01X08240Y09862D02*
G01X08358Y09862D01*
D17*
G01X08240Y10039D02*
G01X08240Y09921D01*
D17*
G01X08240Y09921D02*
G01X08358Y09921D01*
D17*
G01X08358Y10039D02*
G01X08358Y09921D01*
D17*
G01X08240Y10039D02*
G01X08358Y10039D01*
D18*
G01X08417Y10137D02*
G01X08063Y10137D01*
D18*
G01X08417Y09823D02*
G01X08063Y09823D01*
D13*
G01X08092Y10299D02*
G01X08092Y10499D01*
G01X08140Y10499D01*
G01X08169Y10490D01*
G01X08188Y10470D01*
G01X08197Y10451D01*
G01X08207Y10413D01*
G01X08207Y10385D01*
G01X08197Y10347D01*
G01X08188Y10328D01*
G01X08169Y10309D01*
G01X08140Y10299D01*
G01X08092Y10299D01*
D13*
G01X08302Y10299D02*
G01X08340Y10299D01*
G01X08359Y10309D01*
G01X08369Y10318D01*
G01X08388Y10347D01*
G01X08397Y10385D01*
G01X08397Y10461D01*
G01X08388Y10480D01*
G01X08378Y10490D01*
G01X08359Y10499D01*
G01X08321Y10499D01*
G01X08302Y10490D01*
G01X08292Y10480D01*
G01X08283Y10461D01*
G01X08283Y10413D01*
G01X08292Y10394D01*
G01X08302Y10385D01*
G01X08321Y10375D01*
G01X08359Y10375D01*
G01X08378Y10385D01*
G01X08388Y10394D01*
G01X08397Y10413D01*
D13*
G01X08111Y09499D02*
G01X08016Y09499D01*
G01X08016Y09699D01*
D13*
G01X08178Y09604D02*
G01X08245Y09604D01*
D13*
G01X08273Y09499D02*
G01X08178Y09499D01*
G01X08178Y09699D01*
G01X08273Y09699D01*
D13*
G01X08359Y09499D02*
G01X08359Y09699D01*
G01X08407Y09699D01*
G01X08435Y09690D01*
G01X08454Y09670D01*
G01X08464Y09651D01*
G01X08473Y09613D01*
G01X08473Y09585D01*
G01X08464Y09547D01*
G01X08454Y09528D01*
G01X08435Y09509D01*
G01X08407Y09499D01*
G01X08359Y09499D01*
D13*
G01X09500Y11400D02*
G01X09500Y10500D01*
D13*
G01X09500Y10500D02*
G01X09000Y10500D01*
D13*
G01X09000Y10500D02*
G01X09000Y11400D01*
D13*
G01X09000Y11400D02*
G01X09500Y11400D01*
D15*
G01X09323Y10917D02*
G01X09237Y10850D01*
D15*
G01X09323Y10802D02*
G01X09143Y10802D01*
G01X09143Y10879D01*
G01X09151Y10898D01*
G01X09160Y10907D01*
G01X09177Y10917D01*
G01X09203Y10917D01*
G01X09220Y10907D01*
G01X09229Y10898D01*
G01X09237Y10879D01*
G01X09237Y10802D01*
D15*
G01X09143Y10983D02*
G01X09143Y11107D01*
G01X09211Y11040D01*
G01X09211Y11069D01*
G01X09220Y11088D01*
G01X09229Y11098D01*
G01X09246Y11107D01*
G01X09289Y11107D01*
G01X09306Y11098D01*
G01X09314Y11088D01*
G01X09323Y11069D01*
G01X09323Y11012D01*
G01X09314Y10993D01*
G01X09306Y10983D01*
D13*
G01X07000Y08370D02*
G01X06100Y08370D01*
D13*
G01X06100Y08370D02*
G01X06100Y08870D01*
D13*
G01X06100Y08870D02*
G01X07000Y08870D01*
D13*
G01X07000Y08870D02*
G01X07000Y08370D01*
D15*
G01X06517Y08547D02*
G01X06450Y08633D01*
D15*
G01X06402Y08547D02*
G01X06402Y08727D01*
G01X06479Y08727D01*
G01X06498Y08719D01*
G01X06507Y08710D01*
G01X06517Y08693D01*
G01X06517Y08667D01*
G01X06507Y08650D01*
G01X06498Y08641D01*
G01X06479Y08633D01*
G01X06402Y08633D01*
D15*
G01X06688Y08667D02*
G01X06688Y08547D01*
D15*
G01X06640Y08736D02*
G01X06593Y08607D01*
G01X06717Y08607D01*
D13*
G01X02550Y11800D02*
G01X02550Y11750D01*
D13*
G01X02550Y11750D02*
G01X04650Y11750D01*
D13*
G01X04650Y13250D02*
G01X02550Y13250D01*
D13*
G01X02550Y13250D02*
G01X02550Y11800D01*
D13*
G01X02550Y12700D02*
G01X02750Y12700D01*
D13*
G01X02750Y12700D02*
G01X02750Y12300D01*
D13*
G01X02750Y12300D02*
G01X02550Y12300D01*
D13*
G01X04650Y13250D02*
G01X04650Y11750D01*
D22*
G01X03161Y12668D02*
G01X03161Y13118D01*
D22*
G01X03632Y12711D02*
G01X03611Y12689D01*
G01X03546Y12668D01*
G01X03504Y12668D01*
G01X03439Y12689D01*
G01X03396Y12732D01*
G01X03375Y12775D01*
G01X03354Y12861D01*
G01X03354Y12925D01*
G01X03375Y13011D01*
G01X03396Y13054D01*
G01X03439Y13096D01*
G01X03504Y13118D01*
G01X03546Y13118D01*
G01X03611Y13096D01*
G01X03632Y13075D01*
D22*
G01X04061Y12668D02*
G01X03804Y12668D01*
D22*
G01X03932Y12668D02*
G01X03932Y13118D01*
G01X03889Y13054D01*
G01X03846Y13011D01*
G01X03804Y12989D01*
D22*
G01X02108Y12058D02*
G01X02275Y12058D01*
D22*
G01X02075Y11958D02*
G01X02192Y12308D01*
G01X02308Y11958D01*
D22*
G01X02375Y12308D02*
G01X02575Y12308D01*
D22*
G01X02475Y11958D02*
G01X02475Y12308D01*
D22*
G01X02642Y12308D02*
G01X02842Y12308D01*
D22*
G01X02742Y11958D02*
G01X02742Y12308D01*
D22*
G01X02958Y11958D02*
G01X02958Y12308D01*
D22*
G01X03125Y11958D02*
G01X03125Y12308D01*
G01X03325Y11958D01*
G01X03325Y12308D01*
D22*
G01X03558Y12125D02*
G01X03558Y11958D01*
D22*
G01X03442Y12308D02*
G01X03558Y12125D01*
G01X03675Y12308D01*
D22*
G01X03975Y11958D02*
G01X03775Y11958D01*
D22*
G01X03875Y11958D02*
G01X03875Y12308D01*
G01X03842Y12258D01*
G01X03808Y12225D01*
G01X03775Y12208D01*
D22*
G01X04092Y12308D02*
G01X04308Y12308D01*
G01X04192Y12175D01*
G01X04242Y12175D01*
G01X04275Y12158D01*
G01X04292Y12142D01*
G01X04308Y12108D01*
G01X04308Y12025D01*
G01X04292Y11992D01*
G01X04275Y11975D01*
G01X04242Y11958D01*
G01X04142Y11958D01*
G01X04108Y11975D01*
G01X04092Y11992D01*
D22*
G01X04458Y12092D02*
G01X04725Y12092D01*
D22*
G01X04892Y11958D02*
G01X04892Y12308D01*
G01X05025Y12308D01*
G01X05058Y12292D01*
G01X05075Y12275D01*
G01X05092Y12242D01*
G01X05092Y12192D01*
G01X05075Y12158D01*
G01X05058Y12142D01*
G01X05025Y12125D01*
G01X04892Y12125D01*
D13*
G01X03860Y11000D02*
G01X04760Y11000D01*
D13*
G01X04760Y11000D02*
G01X04760Y10500D01*
D13*
G01X04760Y10500D02*
G01X03860Y10500D01*
D13*
G01X03860Y10500D02*
G01X03860Y11000D01*
D15*
G01X04277Y10694D02*
G01X04267Y10686D01*
G01X04239Y10677D01*
G01X04220Y10677D01*
G01X04191Y10686D01*
G01X04172Y10703D01*
G01X04162Y10720D01*
G01X04153Y10754D01*
G01X04153Y10780D01*
G01X04162Y10814D01*
G01X04172Y10831D01*
G01X04191Y10849D01*
G01X04220Y10857D01*
G01X04239Y10857D01*
G01X04267Y10849D01*
G01X04277Y10840D01*
D15*
G01X04353Y10840D02*
G01X04362Y10849D01*
G01X04381Y10857D01*
G01X04429Y10857D01*
G01X04448Y10849D01*
G01X04458Y10840D01*
G01X04467Y10823D01*
G01X04467Y10806D01*
G01X04458Y10780D01*
G01X04343Y10677D01*
G01X04467Y10677D01*
M02*
