G04 ( created by brdgerber.py ( brdgerber.py v0.1 2014-03-12 ) ) date 2015-07-07 22:24:25 EDT*
G04 Gerber Fmt 3.4, Leading zero omitted, Abs format*
%MOIN*%
%FSLAX34Y34*%
G01*
G70*
G90*
G04 APERTURE LIST*
%ADD17C,0.0026*%
%ADD19R,0.0250X0.0450*%
%ADD12C,0.0052*%
%ADD11R,0.1259X0.1259*%
%ADD21R,0.0236X0.0551*%
%ADD22C,0.0060*%
%ADD25C,0.0472*%
%ADD10R,0.1535X0.1535*%
%ADD13C,0.0050*%
%ADD14R,0.0450X0.0250*%
%ADD20C,0.0200*%
%ADD16R,0.0314X0.0314*%
%ADD24C,0.0100*%
%ADD15C,0.0045*%
%ADD23C,0.0080*%
%ADD18C,0.0040*%
G04 APERTURE END LIST*
G54D17*
D14*
X05270Y10470D03*
D14*
X05270Y11070D03*
D16*
X05755Y12100D03*
D16*
X06345Y12100D03*
D16*
X06855Y12100D03*
D16*
X07445Y12100D03*
D16*
X07955Y12100D03*
D16*
X08545Y12100D03*
D16*
X05755Y11050D03*
D16*
X06345Y11050D03*
D16*
X06865Y11060D03*
D16*
X07455Y11060D03*
D16*
X07945Y11050D03*
D16*
X08535Y11050D03*
D19*
X04310Y14510D03*
D19*
X03710Y14510D03*
D16*
X05755Y09980D03*
D16*
X06345Y09980D03*
D16*
X06865Y09990D03*
D16*
X07455Y09990D03*
D16*
X07945Y09980D03*
D16*
X08535Y09980D03*
D14*
X09250Y11250D03*
D14*
X09250Y10650D03*
D19*
X06850Y08620D03*
D19*
X06250Y08620D03*
D21*
X02850Y13550D03*
D21*
X02850Y11450D03*
D21*
X03350Y13550D03*
D21*
X03850Y13550D03*
D21*
X04350Y13550D03*
D21*
X03350Y11450D03*
D21*
X03850Y11450D03*
D21*
X04350Y11450D03*
D19*
X04010Y10750D03*
D19*
X04610Y10750D03*
D23*
G01X05160Y11070D02*
G01X04770Y11460D01*
D24*
G01X06350Y12100D02*
G01X06350Y12000D01*
D24*
G01X06350Y12000D02*
G01X06600Y11750D01*
D24*
G01X06600Y11750D02*
G01X07100Y11750D01*
D24*
G01X07100Y11750D02*
G01X07450Y12100D01*
D24*
G01X07100Y11750D02*
G01X08200Y11750D01*
D24*
G01X08200Y11750D02*
G01X08550Y12100D01*
D24*
G01X06350Y11050D02*
G01X06350Y11000D01*
D24*
G01X06350Y11000D02*
G01X06650Y10700D01*
D24*
G01X06650Y10700D02*
G01X07100Y10700D01*
D24*
G01X07100Y10700D02*
G01X07450Y11050D01*
D24*
G01X07100Y10700D02*
G01X08200Y10700D01*
D24*
G01X08200Y10700D02*
G01X08550Y11050D01*
D24*
G01X06350Y10000D02*
G01X06350Y10100D01*
D24*
G01X06350Y10100D02*
G01X06550Y10300D01*
D24*
G01X06550Y10300D02*
G01X07150Y10300D01*
D24*
G01X07150Y10300D02*
G01X07450Y10000D01*
D24*
G01X07150Y10300D02*
G01X08250Y10300D01*
D24*
G01X08250Y10300D02*
G01X08550Y10000D01*
D24*
G01X05750Y10000D02*
G01X05750Y11050D01*
D24*
G01X05750Y12100D02*
G01X05250Y12100D01*
D25*
X05250Y12100D03*
D24*
G01X06850Y11050D02*
G01X06850Y11200D01*
D24*
G01X06850Y11200D02*
G01X06600Y11450D01*
D23*
G01X06050Y11860D02*
G01X06460Y11450D01*
D23*
G01X06050Y12460D02*
G01X06050Y11860D01*
D23*
G01X06100Y12510D02*
G01X06050Y12460D01*
D23*
G01X05300Y13210D02*
G01X05300Y12910D01*
D23*
G01X04580Y12340D02*
G01X04760Y12520D01*
D24*
G01X06700Y12500D02*
G01X06850Y12350D01*
D24*
G01X06850Y12350D02*
G01X06850Y12100D01*
D23*
G01X04580Y11440D02*
G01X04580Y12340D01*
D24*
G01X07450Y12250D02*
G01X07000Y12700D01*
D24*
G01X07450Y12100D02*
G01X07450Y12250D01*
D24*
G01X07200Y09600D02*
G01X07600Y09600D01*
D24*
G01X06750Y09650D02*
G01X06850Y09750D01*
D24*
G01X06850Y09750D02*
G01X06850Y10000D01*
D24*
G01X07950Y11050D02*
G01X07950Y11100D01*
D24*
G01X07950Y11100D02*
G01X08600Y11750D01*
D24*
G01X08600Y11750D02*
G01X08800Y11750D01*
D24*
G01X08800Y11750D02*
G01X08900Y11850D01*
D24*
G01X08900Y11850D02*
G01X08900Y12400D01*
D24*
G01X08900Y12400D02*
G01X08850Y12450D01*
D24*
G01X08850Y12450D02*
G01X08300Y12450D01*
D24*
G01X08300Y12450D02*
G01X07950Y12100D01*
D24*
G01X07950Y12100D02*
G01X07950Y12700D01*
D24*
G01X07950Y12700D02*
G01X07450Y13200D01*
D25*
X07450Y13200D03*
D25*
X06550Y09250D03*
D24*
G01X06550Y09250D02*
G01X06850Y09250D01*
D24*
G01X06850Y09250D02*
G01X07200Y09600D01*
D24*
G01X07600Y09600D02*
G01X07850Y09600D01*
D24*
G01X07850Y09600D02*
G01X07950Y09700D01*
D24*
G01X07950Y09700D02*
G01X07950Y10000D01*
D24*
G01X09250Y11700D02*
G01X09150Y11800D01*
D24*
G01X09250Y11250D02*
G01X09250Y11700D01*
D23*
G01X07480Y08640D02*
G01X07480Y09010D01*
D23*
G01X07390Y08550D02*
G01X07480Y08640D01*
D24*
G01X09150Y11800D02*
G01X09150Y12550D01*
D23*
G01X04760Y12520D02*
G01X04760Y12810D01*
D23*
G01X04660Y14050D02*
G01X04760Y13950D01*
D23*
G01X04490Y14050D02*
G01X04660Y14050D01*
D24*
G01X05200Y09300D02*
G01X04500Y09300D01*
D24*
G01X03850Y14020D02*
G01X03710Y14160D01*
D23*
G01X04390Y12110D02*
G01X04350Y12070D01*
D23*
G01X03560Y12910D02*
G01X03560Y13230D01*
D24*
G01X04500Y09300D02*
G01X04300Y09500D01*
D24*
G01X04300Y10150D02*
G01X04150Y10300D01*
D24*
G01X04300Y09500D02*
G01X04300Y10150D01*
D23*
G01X04310Y14510D02*
G01X04310Y14130D01*
D23*
G01X04310Y14130D02*
G01X04110Y13930D01*
D23*
G01X04760Y13950D02*
G01X04760Y13860D01*
D24*
G01X06850Y08600D02*
G01X06850Y08950D01*
D24*
G01X06850Y08950D02*
G01X06550Y09250D01*
D25*
X04390Y12700D03*
D24*
G01X09150Y12550D02*
G01X09000Y12700D01*
D23*
G01X04390Y12700D02*
G01X04390Y12110D01*
D25*
X03560Y12910D03*
D23*
G01X06690Y12510D02*
G01X06100Y12510D01*
D24*
G01X09000Y12700D02*
G01X08350Y12700D01*
D24*
G01X08350Y12700D02*
G01X08050Y13000D01*
D24*
G01X08050Y13000D02*
G01X08050Y13300D01*
D25*
X08050Y13300D03*
D23*
G01X05270Y11070D02*
G01X05160Y11070D01*
D23*
G01X04350Y13910D02*
G01X04490Y14050D01*
D24*
G01X05160Y10170D02*
G01X04920Y10170D01*
D24*
G01X08550Y11050D02*
G01X08550Y10600D01*
D24*
G01X08550Y10600D02*
G01X08600Y10550D01*
D25*
X08600Y10550D03*
D25*
X07390Y08550D03*
D23*
G01X04770Y12180D02*
G01X05240Y12650D01*
D23*
G01X04770Y11460D02*
G01X04770Y12180D01*
D24*
G01X05350Y09150D02*
G01X05200Y09300D01*
D24*
G01X05330Y09870D02*
G01X05730Y09470D01*
D24*
G01X05290Y09870D02*
G01X05330Y09870D01*
D24*
G01X03850Y13550D02*
G01X03850Y14020D01*
D24*
G01X05290Y10040D02*
G01X05160Y10170D01*
D24*
G01X06250Y08600D02*
G01X05550Y08600D01*
D24*
G01X05550Y08600D02*
G01X05350Y08800D01*
D24*
G01X05350Y08800D02*
G01X05350Y09150D01*
D23*
G01X04760Y13750D02*
G01X05300Y13210D01*
D24*
G01X04920Y10170D02*
G01X04880Y10210D01*
D23*
G01X05300Y12910D02*
G01X05350Y12910D01*
D23*
G01X04110Y13200D02*
G01X04250Y13060D01*
D23*
G01X04110Y13930D02*
G01X04110Y13200D01*
D23*
G01X04770Y12820D02*
G01X04770Y13260D01*
D24*
G01X03710Y14160D02*
G01X03710Y14510D01*
D23*
G01X05510Y12650D02*
G01X05560Y12700D01*
D23*
G01X03850Y13520D02*
G01X03850Y13550D01*
D24*
G01X04880Y10210D02*
G01X04880Y10700D01*
D25*
X06000Y09470D03*
D23*
G01X05560Y12700D02*
G01X05930Y12700D01*
D23*
G01X05350Y12910D02*
G01X05560Y12700D01*
D23*
G01X04350Y13550D02*
G01X04350Y13910D01*
D24*
G01X06750Y09640D02*
G01X06170Y09640D01*
D24*
G01X06170Y09640D02*
G01X06000Y09470D01*
D24*
G01X05290Y09880D02*
G01X05290Y10040D01*
D23*
G01X06460Y11450D02*
G01X06600Y11450D01*
D23*
G01X04610Y11190D02*
G01X04350Y11450D01*
D23*
G01X04350Y12070D02*
G01X04350Y11450D01*
D24*
G01X05700Y10470D02*
G01X05750Y10420D01*
D24*
G01X05270Y10470D02*
G01X05700Y10470D01*
D24*
G01X05730Y09470D02*
G01X06000Y09470D01*
D24*
G01X08540Y09980D02*
G01X08540Y09750D01*
D24*
G01X08540Y09750D02*
G01X08180Y09390D01*
D24*
G01X08180Y09390D02*
G01X07850Y09390D01*
D24*
G01X07850Y09390D02*
G01X07480Y09020D01*
D23*
G01X07000Y12700D02*
G01X05920Y12700D01*
D23*
G01X04760Y13850D02*
G01X04760Y13750D01*
D23*
G01X04240Y13070D02*
G01X04470Y13070D01*
D23*
G01X04470Y13070D02*
G01X04660Y13260D01*
D23*
G01X04660Y13260D02*
G01X04770Y13260D01*
D25*
X04770Y13260D03*
D23*
G01X04780Y11170D02*
G01X04780Y11240D01*
D23*
G01X04780Y11240D02*
G01X04580Y11440D01*
D23*
G01X04880Y11070D02*
G01X04780Y11170D01*
D23*
G01X03560Y13230D02*
G01X03850Y13520D01*
D25*
X05190Y11560D03*
D23*
G01X05190Y11560D02*
G01X05280Y11650D01*
D23*
G01X05280Y11650D02*
G01X06260Y11650D01*
D23*
G01X04610Y10750D02*
G01X04610Y11190D01*
D23*
G01X03630Y12270D02*
G01X03290Y12270D01*
D23*
G01X03290Y12270D02*
G01X02640Y12920D01*
D23*
G01X04090Y11810D02*
G01X03630Y12270D01*
D25*
X02640Y12930D03*
D23*
G01X04380Y11420D02*
G01X04350Y11450D01*
D23*
G01X04100Y10350D02*
G01X04150Y10300D01*
D23*
G01X03000Y12570D02*
G01X02640Y12930D01*
D23*
G01X03860Y10350D02*
G01X03780Y10430D01*
D23*
G01X03780Y10430D02*
G01X03780Y10970D01*
D23*
G01X02850Y13550D02*
G01X02850Y13140D01*
D23*
G01X02850Y13140D02*
G01X02640Y12930D01*
D23*
G01X04100Y10350D02*
G01X03860Y10350D01*
D23*
G01X03780Y10960D02*
G01X03780Y11380D01*
D23*
G01X03780Y11380D02*
G01X03850Y11450D01*
D25*
X03440Y10760D03*
D23*
G01X03440Y10760D02*
G01X03350Y10850D01*
D23*
G01X03350Y10850D02*
G01X03350Y11450D01*
D23*
G01X04010Y10750D02*
G01X04010Y11040D01*
D23*
G01X04010Y11040D02*
G01X04090Y11120D01*
D23*
G01X04090Y11120D02*
G01X04090Y11810D01*
D23*
G01X04880Y10670D02*
G01X04880Y11070D01*
D23*
G01X05240Y12650D02*
G01X05510Y12650D01*
D23*
G01X08540Y09980D02*
G01X08550Y09980D01*
D23*
G01X08550Y09980D02*
G01X09220Y10650D01*
D23*
G01X09220Y10650D02*
G01X09250Y10650D01*
M02*
